<svg id="Layer_1" data-name="Layer 1" xmlns="http://www.w3.org/2000/svg" xmlns:xlink="http://www.w3.org/1999/xlink" viewBox="0 0 76.85 67.02"><defs><style>.cls-1{mask:url(#mask);}.cls-2{mix-blend-mode:multiply;fill:url(#linear-gradient);}.cls-3{fill:url(#radial-gradient);}.cls-4{fill:url(#radial-gradient-2);}.cls-5{fill:url(#radial-gradient-3);}.cls-6{mask:url(#mask-2);}.cls-7{fill:url(#linear-gradient-2);}.cls-8{fill:url(#radial-gradient-4);}.cls-9{fill:url(#radial-gradient-5);}.cls-10{fill:url(#radial-gradient-6);}.cls-11{fill:url(#radial-gradient-7);}.cls-12{fill:url(#radial-gradient-8);}.cls-13{fill:url(#linear-gradient-3);}.cls-14{fill:url(#linear-gradient-4);}.cls-15{fill:url(#radial-gradient-9);}.cls-16{fill:url(#linear-gradient-5);}.cls-17{fill:url(#linear-gradient-6);}.cls-18{fill:url(#radial-gradient-10);}.cls-19{fill:url(#radial-gradient-11);}.cls-20{fill:#231f20;}.cls-21{filter:url(#luminosity-noclip-2);}.cls-22{filter:url(#luminosity-noclip);}</style><filter id="luminosity-noclip" x="62.93" y="-8342" width="36.96" height="32766" filterUnits="userSpaceOnUse" color-interpolation-filters="sRGB"><feFlood flood-color="#fff" result="bg"/><feBlend in="SourceGraphic" in2="bg"/></filter><mask id="mask" x="62.93" y="-8342" width="36.96" height="32766" maskUnits="userSpaceOnUse"><g class="cls-22"/></mask><linearGradient id="linear-gradient" x1="588.1" y1="1.27" x2="588.1" y2="-27.79" gradientTransform="translate(-177.08 618.33) rotate(-62.75)" gradientUnits="userSpaceOnUse"><stop offset="0" stop-color="#fff"/><stop offset="0.06" stop-color="#dadada"/><stop offset="0.16" stop-color="#a7a7a7"/><stop offset="0.26" stop-color="#7b7b7b"/><stop offset="0.37" stop-color="#555"/><stop offset="0.48" stop-color="#363636"/><stop offset="0.59" stop-color="#1e1e1e"/><stop offset="0.71" stop-color="#0d0d0d"/><stop offset="0.84" stop-color="#030303"/><stop offset="1"/></linearGradient><radialGradient id="radial-gradient" cx="-14315.26" cy="-7160.45" r="1.25" gradientTransform="translate(214499.41 -70900.16) rotate(-90) scale(4.96 29.94)" gradientUnits="userSpaceOnUse"><stop offset="0"/><stop offset="0.12" stop-color="#373737"/><stop offset="0.24" stop-color="#6b6b6b"/><stop offset="0.37" stop-color="#989898"/><stop offset="0.5" stop-color="#bdbdbd"/><stop offset="0.63" stop-color="#dadada"/><stop offset="0.75" stop-color="#efefef"/><stop offset="0.88" stop-color="#fbfbfb"/><stop offset="1" stop-color="#fff"/></radialGradient><radialGradient id="radial-gradient-2" cx="410.78" cy="-2991.71" r="14.84" gradientTransform="matrix(2.65, -4.31, 4.66, 2.45, 12916.56, 9190.57)" gradientUnits="userSpaceOnUse"><stop offset="0" stop-color="#efefef"/><stop offset="0.22" stop-color="#efefef"/><stop offset="0.26" stop-color="#e6e6e6"/><stop offset="0.33" stop-color="#ccc"/><stop offset="0.43" stop-color="#a4a4a4"/><stop offset="0.49" stop-color="gray"/><stop offset="0.57" stop-color="#717171"/><stop offset="0.68" stop-color="#969696"/><stop offset="0.81" stop-color="#414143"/></radialGradient><radialGradient id="radial-gradient-3" cx="409.54" cy="-2985.67" r="9.29" gradientTransform="matrix(2.65, -4.31, 4.66, 2.45, 12916.56, 9190.57)" gradientUnits="userSpaceOnUse"><stop offset="0" stop-color="#efefef"/><stop offset="0.22" stop-color="#efefef"/><stop offset="0.26" stop-color="#e6e6e6"/><stop offset="0.33" stop-color="#ccc"/><stop offset="0.43" stop-color="#a4a4a4"/><stop offset="0.49" stop-color="gray"/><stop offset="0.57" stop-color="#717171"/><stop offset="0.68" stop-color="#969696"/></radialGradient><filter id="luminosity-noclip-2" x="62.93" y="68.67" width="36.96" height="43.64" filterUnits="userSpaceOnUse" color-interpolation-filters="sRGB"><feFlood flood-color="#fff" result="bg"/><feBlend in="SourceGraphic" in2="bg"/></filter><mask id="mask-2" x="14.78" y="1.78" width="36.96" height="43.64" maskUnits="userSpaceOnUse"><g class="cls-21"><g transform="translate(-48.15 -66.89)"><g class="cls-1"><path class="cls-2" d="M94.09,70.05c8.86,4.23,6.48,14.73.16,26.08s-14.18,19.25-23,15S60.28,94.31,66.6,83,85.23,65.83,94.09,70.05Z"/></g></g></g></mask><linearGradient id="linear-gradient-2" x1="588.1" y1="1.27" x2="588.1" y2="-27.79" gradientTransform="translate(-177.08 618.33) rotate(-62.75)" gradientUnits="userSpaceOnUse"><stop offset="0" stop-color="#fff"/><stop offset="0.09" stop-color="#fff"/><stop offset="1" stop-color="#fff"/></linearGradient><radialGradient id="radial-gradient-4" cx="406.71" cy="-2974.26" r="22.56" gradientTransform="matrix(2.65, -4.31, 4.66, 2.45, 12916.56, 9190.57)" gradientUnits="userSpaceOnUse"><stop offset="0.06" stop-color="#e31a2e"/><stop offset="0.42" stop-color="#e51b23"/><stop offset="0.61" stop-color="#eb2036"/><stop offset="0.75" stop-color="#ed223d"/></radialGradient><radialGradient id="radial-gradient-5" cx="407.85" cy="-2986.23" r="13.14" gradientTransform="matrix(2.65, -4.31, 4.66, 2.45, 12916.56, 9190.57)" gradientUnits="userSpaceOnUse"><stop offset="0.07" stop-color="#53c7e9"/><stop offset="0.24" stop-color="#329ed0"/><stop offset="0.41" stop-color="#177dbc"/><stop offset="0.54" stop-color="#0769af"/><stop offset="0.64" stop-color="#0162ab"/><stop offset="0.75" stop-color="#091a29"/></radialGradient><radialGradient id="radial-gradient-6" cx="409.65" cy="-2985.26" r="3.71" gradientTransform="matrix(2.65, -4.31, 4.66, 2.45, 12916.56, 9190.57)" gradientUnits="userSpaceOnUse"><stop offset="0.49" stop-color="#3aacd4"/><stop offset="1" stop-color="#7ed0e3"/></radialGradient><radialGradient id="radial-gradient-7" cx="413.54" cy="-2986.48" r="3.55" gradientTransform="matrix(2.65, -4.31, 4.66, 2.45, 12916.56, 9190.57)" gradientUnits="userSpaceOnUse"><stop offset="0.33" stop-color="#929191"/><stop offset="0.48" stop-color="#7f7f7f"/><stop offset="0.78" stop-color="#4f504f"/><stop offset="1" stop-color="#282928"/></radialGradient><radialGradient id="radial-gradient-8" cx="414.02" cy="-2988.15" r="0" gradientTransform="matrix(2.65, -4.31, 4.66, 2.45, 12916.56, 9190.57)" gradientUnits="userSpaceOnUse"><stop offset="0" stop-color="#6acbdf"/><stop offset="0.59" stop-color="#2d2c6e"/></radialGradient><linearGradient id="linear-gradient-3" x1="597.74" y1="-8.13" x2="604.92" y2="-16.17" gradientTransform="translate(-184.25 609.83) rotate(-60.36)" gradientUnits="userSpaceOnUse"><stop offset="0" stop-color="#377c3b"/><stop offset="1" stop-color="#bbd531"/></linearGradient><linearGradient id="linear-gradient-4" x1="597.27" y1="3.86" x2="612.74" y2="0.55" gradientTransform="translate(-184.25 609.83) rotate(-60.36)" gradientUnits="userSpaceOnUse"><stop offset="0" stop-color="#7f132a"/><stop offset="0.54" stop-color="#971014"/><stop offset="1" stop-color="#bd2026"/></linearGradient><radialGradient id="radial-gradient-9" cx="408.94" cy="-2984.04" r="12.21" gradientTransform="matrix(2.65, -4.31, 4.66, 2.45, 12916.56, 9190.57)" gradientUnits="userSpaceOnUse"><stop offset="0.19" stop-color="#bbd531"/><stop offset="0.31" stop-color="#93c93a"/><stop offset="0.44" stop-color="#72c041"/><stop offset="0.55" stop-color="#5eba45"/><stop offset="0.62" stop-color="#57b847"/><stop offset="0.91" stop-color="#24391b"/></radialGradient><linearGradient id="linear-gradient-5" x1="593.53" y1="-42.58" x2="575.77" y2="-6.81" gradientTransform="translate(-184.25 609.83) rotate(-60.36)" gradientUnits="userSpaceOnUse"><stop offset="0" stop-color="#fff"/><stop offset="0.05" stop-color="#f6fbfd"/><stop offset="0.14" stop-color="#dcf0f7"/><stop offset="0.24" stop-color="#b3dfee"/><stop offset="0.37" stop-color="#7ac7e2"/><stop offset="0.49" stop-color="#3aacd4"/><stop offset="0.73" stop-color="#7ed0e3"/><stop offset="0.77" stop-color="#87d3e5"/><stop offset="0.83" stop-color="#a1ddeb"/><stop offset="0.91" stop-color="#caecf3"/><stop offset="1" stop-color="#fff"/></linearGradient><linearGradient id="linear-gradient-6" x1="596.99" y1="-5.28" x2="606.28" y2="-17.17" gradientTransform="translate(-184.25 609.83) rotate(-60.36)" gradientUnits="userSpaceOnUse"><stop offset="0" stop-color="#377c3b"/><stop offset="0.59" stop-color="#bbd531"/></linearGradient><radialGradient id="radial-gradient-10" cx="-12545.58" cy="-6626.29" r="0" gradientTransform="matrix(-4.66, -2.45, 14.81, -24.07, 39691.65, -190163.57)" xlink:href="#radial-gradient"/><radialGradient id="radial-gradient-11" cx="405.22" cy="-2986.02" r="0" gradientTransform="matrix(2.65, -4.31, 4.66, 2.45, 12916.56, 9190.57)" xlink:href="#radial-gradient"/></defs><title>logo</title><path class="cls-3" d="M125,127.67c0,3.45-17.2,6.25-38.42,6.25s-38.43-2.8-38.43-6.25,17.2-6.25,38.43-6.25S125,124.22,125,127.67Z" transform="translate(-48.15 -66.89)"/><path class="cls-4" d="M107.33,70.69c-15.06-7.92-34.21-3-42.77,10.87s-3.31,31.64,11.75,39.56c6.68,3.51,13.11,4.06,20.12,2.86.12,0,7.7-4.67,7.82-4.69,19.85-16.07,17.06-23.87,13.48-39.73-.51-.69-1-1.37-1.63-2A31.1,31.1,0,0,0,107.33,70.69Z" transform="translate(-48.15 -66.89)"/><path class="cls-5" d="M107.78,71.56c-14.72-7.75-33.44-3-41.81,10.62s-3.23,30.93,11.49,38.67c6.53,3.44,12.82,4,19.67,2.8.12,0,7.53-4.57,7.64-4.58,19.42-15.72,16.69-23.34,13.19-38.84-.5-.68-1-1.35-1.6-2A30,30,0,0,0,107.78,71.56Z" transform="translate(-48.15 -66.89)"/><g class="cls-6"><path class="cls-7" d="M94.09,70.05c8.86,4.23,6.48,14.73.16,26.08s-14.18,19.25-23,15S60.28,94.31,66.6,83,85.23,65.83,94.09,70.05Z" transform="translate(-48.15 -66.89)"/></g><path class="cls-8" d="M98.05,124.13s13-3.58,20.55-18.47c4.16-8.17,6.55-19.8,4.38-22.16-2.82-3-4.12-4.62-5.42-6,1.15,5,.69,12-1.28,20.07S107,118.91,98.05,124.13Z" transform="translate(-48.15 -66.89)"/><path class="cls-9" d="M67.43,116.64s17.22,16.78,23.46-2.94c6.34-20-10-40.28-10-40.28a58,58,0,0,1,8-2.46A57.61,57.61,0,0,1,96.22,70s19.94,27.22,6,49.18c-7.26,11.45-17,10.34-22,8.93C72.41,125.9,67.43,116.64,67.43,116.64Z" transform="translate(-48.15 -66.89)"/><path class="cls-10" d="M90.89,113.7c6.34-20-10-40.27-10-40.28h0a40.13,40.13,0,0,1-1.86,4c5.5,6.79,13.39,21,11.27,34.91C89,120.66,85,123.19,80.68,123.29,84.63,123.37,88.54,121.12,90.89,113.7Z" transform="translate(-48.15 -66.89)"/><path class="cls-11" d="M75.25,81.09c5.55,2.92,17,17.72,14.91,31.58A18.26,18.26,0,0,1,88,119.19a17.56,17.56,0,0,0,2.32-6.85c2.13-13.86-5.77-28.12-11.26-34.91Z" transform="translate(-48.15 -66.89)"/><path class="cls-12" d="M80.86,73.42" transform="translate(-48.15 -66.89)"/><path class="cls-13" d="M106.53,94.2A53.73,53.73,0,0,0,99.63,70L97.7,72.27A69.82,69.82,0,0,1,106.53,94.2Z" transform="translate(-48.15 -66.89)"/><path class="cls-14" d="M116.29,97.47c2-8,2.43-15,1.29-20.06l-2.15,1.25a42.85,42.85,0,0,1-1.19,24.78A40.46,40.46,0,0,0,116.29,97.47Z" transform="translate(-48.15 -66.89)"/><path class="cls-15" d="M113.3,71.76A21.68,21.68,0,0,0,99.63,70a54.41,54.41,0,0,1,6.91,24.49c1.36,7.88.82,16.67-4.3,24.74a25.86,25.86,0,0,1-3.66,4.59c6.93-4.32,12.8-13.37,15.9-20.9C117.36,94.53,117.9,84.14,113.3,71.76Z" transform="translate(-48.15 -66.89)"/><path class="cls-16" d="M90.89,113.7a32,32,0,0,0,1.36-10.54,41.7,41.7,0,0,0-1.79-10.49,56.13,56.13,0,0,0-4.08-9.92c-.83-1.59-1.73-3.16-2.7-4.68a45.28,45.28,0,0,0-3-4.24l.15-.41.41-.15a48.5,48.5,0,0,1,3,4.49q1.43,2.34,2.65,4.77a56.75,56.75,0,0,1,3.93,10,41.37,41.37,0,0,1,1.6,10.57A32,32,0,0,1,90.89,113.7Z" transform="translate(-48.15 -66.89)"/><path class="cls-17" d="M106.38,92.16a50.33,50.33,0,0,0-2.3-11.37A53.42,53.42,0,0,0,102,75.35q-.59-1.34-1.26-2.64c-.23-.43-.46-.86-.7-1.29l-.36-.63-.19-.32-.1-.19.24-.29.41-.06.11.21.18.33c.12.22.24.44.35.66q.34.66.66,1.32c.42.89.82,1.79,1.19,2.7a55.14,55.14,0,0,1,1.92,5.55A50.88,50.88,0,0,1,106.38,92.16Z" transform="translate(-48.15 -66.89)"/><path class="cls-18" d="M67.43,116.64" transform="translate(-48.15 -66.89)"/><path class="cls-19" d="M67.43,116.64" transform="translate(-48.15 -66.89)"/><path class="cls-20" d="M67.43,116.64a7,7,0,0,1-.24-2.77,31.36,31.36,0,0,0,6.32,5.59c-.68,1.11.65,2,.65,2A19.1,19.1,0,0,1,67.43,116.64Z" transform="translate(-48.15 -66.89)"/></svg>