<svg id="Layer_1" data-name="Layer 1" xmlns="http://www.w3.org/2000/svg" viewBox="0 0 1246 241.43"><defs><style>.cls-1{fill:#479a3c;}.cls-2{fill:#41a23c;}</style></defs><title>04</title><path class="cls-1" d="M871.49,197.32a128.79,128.79,0,0,1-14.15-34.59,93.58,93.58,0,0,1-2.76-18.89,69.59,69.59,0,0,1,1.9-19.46,55.28,55.28,0,0,1,8.41-18.26,56.18,56.18,0,0,1,6.66-7.71,67.8,67.8,0,0,1,7.88-6.4,80.44,80.44,0,0,1,17.8-9A117.68,117.68,0,0,1,916.14,78a165.18,165.18,0,0,1,19.21-2.36,150.45,150.45,0,0,1,19.46.1,169.2,169.2,0,0,1,38,7.19,261.06,261.06,0,0,1,35.55,14c11.43,5.42,22.45,11.42,33.32,17.49s21.5,12.38,32.19,18.46,21.32,12.14,32.14,17.75c21.56,11.34,43.78,21.13,66.88,28.36a232,232,0,0,0,35.06,8.24,146.41,146.41,0,0,0,17.82,1.63,114.72,114.72,0,0,0,17.79-.73,81,81,0,0,0,33.46-11.33,64.49,64.49,0,0,0,13.81-11.55A56.07,56.07,0,0,0,1321,150a43.43,43.43,0,0,1-3.27,8.76,63.41,63.41,0,0,1-4.77,8.14,68.27,68.27,0,0,1-13,13.86,75.61,75.61,0,0,1-16.48,10,94.05,94.05,0,0,1-18.39,5.89,135.54,135.54,0,0,1-38.32,2,221.51,221.51,0,0,1-37.54-6.53,323.26,323.26,0,0,1-36-11.71c-11.77-4.55-23.23-9.78-34.49-15.31s-22.22-11.52-33.07-17.59l-32.23-18.31c-10.67-6.06-21.39-11.88-32.23-17.21A265.52,265.52,0,0,0,988,98.19a165.16,165.16,0,0,0-34.48-7.63,147.69,147.69,0,0,0-17.6-.77,153.79,153.79,0,0,0-17.67,1.32,114.53,114.53,0,0,0-17.12,3.56,73.21,73.21,0,0,0-15.7,6.7,57.85,57.85,0,0,0-6.86,4.82,51.28,51.28,0,0,0-5.9,5.89,46.78,46.78,0,0,0-8.22,14.67,63.38,63.38,0,0,0-3.25,17.14,96.85,96.85,0,0,0,.75,18,132.67,132.67,0,0,0,3.65,17.94A145.38,145.38,0,0,0,871.49,197.32Z" transform="translate(-75 -18.98)"/><path class="cls-1" d="M75,118.46c9.5,25.32,28.58,46.19,52.19,56a104.47,104.47,0,0,0,37.26,7.83,145.81,145.81,0,0,0,38.22-3.8,230.39,230.39,0,0,0,37.09-12.32c12.15-5.09,24.11-10.89,36-17s23.72-12.5,35.63-18.89,23.94-12.7,36.16-18.74c24.45-12,49.85-23,76.5-30.34,6.66-1.84,13.38-3.49,20.16-4.88s13.62-2.49,20.49-3.36a152.74,152.74,0,0,1,42.07-.17,107.89,107.89,0,0,1,20.71,5.11,85.36,85.36,0,0,1,19.15,9.7,72.91,72.91,0,0,1,8.44,6.74c.67.6,1.33,1.21,2,1.87s1.27,1.28,1.89,1.94c1.19,1.35,2.41,2.68,3.49,4.13a59.37,59.37,0,0,1,5.91,9.05,58.64,58.64,0,0,1,4.22,9.93,53.17,53.17,0,0,1,2.22,21.26,75.45,75.45,0,0,1-5.13,20.23A112.15,112.15,0,0,1,560.26,181a125.38,125.38,0,0,1-12.1,16.35A139,139,0,0,0,558.43,180a121.57,121.57,0,0,0,7.49-18.53,72.56,72.56,0,0,0,3.24-19.27,47.52,47.52,0,0,0-3.32-18.59,53.26,53.26,0,0,0-9.92-16c-1-1.19-2.15-2.29-3.25-3.41-.57-.54-1.17-1.06-1.75-1.59s-1.18-1-1.8-1.53a65,65,0,0,0-7.71-5.45A79,79,0,0,0,524.07,88a98.26,98.26,0,0,0-18.77-3.64,142.47,142.47,0,0,0-38.66,1.83q-9.72,1.66-19.32,4t-19,5.31c-25.17,7.93-49.43,18.84-73.24,31-11.93,6-23.78,12.33-35.66,18.73s-23.86,12.73-36,18.88-24.63,11.95-37.5,17a232.11,232.11,0,0,1-40,12.1,143.39,143.39,0,0,1-42.28,2.4,109,109,0,0,1-40.81-11.87A91.3,91.3,0,0,1,91.1,156.1,97.59,97.59,0,0,1,80.91,138a85.24,85.24,0,0,1-3.56-9.64A68.65,68.65,0,0,1,75,118.46Z" transform="translate(-75 -18.98)"/><path class="cls-2" d="M611.25,260.41s14.82-41.74,31.55-47.32c23.66-7.88,39.43,15.77,90.69-19.71C794.66,151,828.12,83,828.12,83s-47.6,5.86-110.4,15.77C642.8,110.57,627,197.32,627,197.32s19.71-27.6,55.2-47.32c20.1-11.16,55.2-15.77,55.2-15.77s-55.2,23.66-86.75,47.32c-28.21,21.16-47.31,71-47.31,71Z" transform="translate(-75 -18.98)"/><path class="cls-2" d="M670.55,111.62C667.13,103.55,650.68,79,650.68,79s17.66,23.32,23,30.51a94.59,94.59,0,0,1,43.45-15.13l10.36-1c-1.2-1.22-2.27-2.38-3.58-3.64C670.22,38.27,596.87,19,596.87,19s15.19,45.49,37.37,105.07a97.69,97.69,0,0,0,8.08,16.64A117.23,117.23,0,0,1,670.55,111.62Z" transform="translate(-75 -18.98)"/></svg>